<?xml version="1.0" standalone="no"?>
<!DOCTYPE svg PUBLIC "-//W3C//DTD SVG 20010904//EN"
 "http://www.w3.org/TR/2001/REC-SVG-20010904/DTD/svg10.dtd">
<svg version="1.0" xmlns="http://www.w3.org/2000/svg"
 width="96.000000pt" height="96.000000pt" viewBox="0 0 96.000000 96.000000"
 preserveAspectRatio="xMidYMid meet">

<g transform="translate(0.000000,96.000000) scale(0.100000,-0.100000)"
fill="#000000" stroke="none">
<path d="M437 824 c-35 -19 -47 -50 -47 -120 0 -41 4 -54 15 -54 11 0 12 6 6
23 -9 24 -4 48 13 59 14 9 36 -10 36 -33 0 -30 28 -22 32 8 3 30 32 43 51 24
6 -6 12 -32 13 -59 1 -27 16 -83 34 -128 18 -43 38 -104 44 -134 l12 -55 13
37 c10 31 10 42 -4 70 l-16 33 21 -24 c29 -34 25 -131 -6 -131 -19 0 -18 -36
1 -44 9 -3 23 3 32 14 10 11 23 20 30 20 37 0 25 96 -22 171 -65 102 -85 148
-85 188 0 64 -28 121 -66 137 -42 18 -72 17 -107 -2z"/>
<path d="M420 690 c0 -19 11 -26 23 -14 8 8 -3 34 -14 34 -5 0 -9 -9 -9 -20z"/>
<path d="M507 704 c-14 -15 -6 -34 14 -34 14 0 19 5 17 17 -3 18 -20 27 -31
17z"/>
<path d="M402 615 c-1 -6 -22 -41 -46 -78 -52 -80 -86 -169 -66 -175 7 -3 21
-15 32 -27 29 -34 98 -148 98 -163 0 -9 21 -12 79 -10 l79 2 4 33 c4 37 3 38
-32 18 -37 -21 -103 -19 -131 5 -13 10 -18 19 -11 20 25 0 11 26 -43 75 -59
55 -67 79 -40 125 l15 25 -6 -30 c-4 -18 10 2 35 48 31 58 41 87 38 110 -2 18
-5 27 -5 22z"/>
</g>
</svg>
